name Run_200 01
datacolumns 19
datarows 66
range 4.754167 4.821875
endheader
time	ground_force_vx	ground_force_vy	ground_force_vz	ground_force_px	ground_force_py	ground_force_pz	ground_force_vx	ground_force_vy	ground_force_vz	ground_force_px	ground_force_py	ground_force_pz	ground_torque_x	ground_torque_y	ground_torque_z	ground_torque_x	ground_torque_y	ground_torque_z
4.754167	0.000000	0.000000	0.000000	0.000000	0.000000	0.000000	-43.031921	888.817688	19.959904	0.494406	0.000000	-0.378501	0.000000	0.000000	0.000000	0.000000	-1.501119	0.000000	
4.755208	0.000000	0.000000	0.000000	0.000000	0.000000	0.000000	-46.129536	901.716858	20.095675	0.493692	0.000000	-0.378939	0.000000	0.000000	0.000000	0.000000	-1.509458	0.000000	
4.756250	0.000000	0.000000	0.000000	0.000000	0.000000	0.000000	-49.493790	914.447632	20.276327	0.492991	0.000000	-0.379384	0.000000	0.000000	0.000000	0.000000	-1.517691	0.000000	
4.757292	0.000000	0.000000	0.000000	0.000000	0.000000	0.000000	-53.092449	927.072083	20.508543	0.492305	0.000000	-0.379830	0.000000	0.000000	0.000000	0.000000	-1.525976	0.000000	
4.758333	0.000000	0.000000	0.000000	0.000000	0.000000	0.000000	-56.887722	939.648071	20.798182	0.491634	0.000000	-0.380269	0.000000	0.000000	0.000000	0.000000	-1.534460	0.000000	
4.759375	0.000000	0.000000	0.000000	0.000000	0.000000	0.000000	-60.837578	952.228516	21.150126	0.490979	0.000000	-0.380695	0.000000	0.000000	0.000000	0.000000	-1.543287	0.000000	
4.760417	0.000000	0.000000	0.000000	0.000000	0.000000	0.000000	-64.897270	964.860535	21.568159	0.490337	0.000000	-0.381103	0.000000	0.000000	0.000000	0.000000	-1.552591	0.000000	
4.761458	0.000000	0.000000	0.000000	0.000000	0.000000	0.000000	-69.020943	977.585144	22.054863	0.489706	0.000000	-0.381488	0.000000	0.000000	0.000000	0.000000	-1.562496	0.000000	
4.762500	0.000000	0.000000	0.000000	0.000000	0.000000	0.000000	-73.163193	990.436646	22.611549	0.489083	0.000000	-0.381846	0.000000	0.000000	0.000000	0.000000	-1.573115	0.000000	
4.763542	0.000000	0.000000	0.000000	0.000000	0.000000	0.000000	-77.280518	1003.442078	23.238216	0.488462	0.000000	-0.382175	0.000000	0.000000	0.000000	0.000000	-1.584548	0.000000	
4.764583	0.000000	0.000000	0.000000	0.000000	0.000000	0.000000	-81.332550	1016.621399	23.933550	0.487839	0.000000	-0.382473	0.000000	0.000000	0.000000	0.000000	-1.596883	0.000000	
4.765625	0.000000	0.000000	0.000000	0.000000	0.000000	0.000000	-85.283028	1029.987061	24.694944	0.487208	0.000000	-0.382738	0.000000	0.000000	0.000000	0.000000	-1.610192	0.000000	
4.766667	0.000000	0.000000	0.000000	0.000000	0.000000	0.000000	-89.100441	1043.544434	25.518570	0.486562	0.000000	-0.382973	0.000000	0.000000	0.000000	0.000000	-1.624537	0.000000	
4.767708	0.000000	0.000000	0.000000	0.000000	0.000000	0.000000	-92.758316	1057.291748	26.399452	0.485896	0.000000	-0.383176	0.000000	0.000000	0.000000	0.000000	-1.639961	0.000000	
4.768750	0.000000	0.000000	0.000000	0.000000	0.000000	0.000000	-96.235176	1071.221069	27.331606	0.485204	0.000000	-0.383352	0.000000	0.000000	0.000000	0.000000	-1.656496	0.000000	
4.769792	0.000000	0.000000	0.000000	0.000000	0.000000	0.000000	-99.514244	1085.318604	28.308163	0.484479	0.000000	-0.383502	0.000000	0.000000	0.000000	0.000000	-1.674158	0.000000	
4.770833	0.000000	0.000000	0.000000	0.000000	0.000000	0.000000	-102.582809	1099.565308	29.321541	0.483717	0.000000	-0.383629	0.000000	0.000000	0.000000	0.000000	-1.692948	0.000000	
4.771875	0.000000	0.000000	0.000000	0.000000	0.000000	0.000000	-105.431564	1113.938477	30.363626	0.482911	0.000000	-0.383738	0.000000	0.000000	0.000000	0.000000	-1.712857	0.000000	
4.772917	0.000000	0.000000	0.000000	0.000000	0.000000	0.000000	-108.053726	1128.411865	31.425953	0.482057	0.000000	-0.383831	0.000000	0.000000	0.000000	0.000000	-1.733860	0.000000	
4.773958	0.000000	0.000000	0.000000	0.000000	0.000000	0.000000	-110.444252	1142.957153	32.499897	0.481152	0.000000	-0.383912	0.000000	0.000000	0.000000	0.000000	-1.755922	0.000000	
4.775000	0.000000	0.000000	0.000000	0.000000	0.000000	0.000000	-112.599083	1157.545044	33.576878	0.480191	0.000000	-0.383985	0.000000	0.000000	0.000000	0.000000	-1.778997	0.000000	
4.776042	0.000000	0.000000	0.000000	0.000000	0.000000	0.000000	-114.514572	1172.145386	34.648533	0.479172	0.000000	-0.384054	0.000000	0.000000	0.000000	0.000000	-1.803028	0.000000	
4.777083	0.000000	0.000000	0.000000	0.000000	0.000000	0.000000	-116.187080	1186.729126	35.706909	0.478094	0.000000	-0.384120	0.000000	0.000000	0.000000	0.000000	-1.827951	0.000000	
4.778125	0.000000	0.000000	0.000000	0.000000	0.000000	0.000000	-117.612778	1201.267700	36.744614	0.476954	0.000000	-0.384188	0.000000	0.000000	0.000000	0.000000	-1.853693	0.000000	
4.779167	0.000000	0.000000	0.000000	0.000000	0.000000	0.000000	-118.787666	1215.734741	37.754959	0.475753	0.000000	-0.384258	0.000000	0.000000	0.000000	0.000000	-1.880175	0.000000	
4.780208	0.000000	0.000000	0.000000	0.000000	0.000000	0.000000	-119.707802	1230.105469	38.732098	0.474492	0.000000	-0.384334	0.000000	0.000000	0.000000	0.000000	-1.907315	0.000000	
4.781250	0.000000	0.000000	0.000000	0.000000	0.000000	0.000000	-120.369629	1244.357300	39.671120	0.473172	0.000000	-0.384417	0.000000	0.000000	0.000000	0.000000	-1.935026	0.000000	
4.782292	0.000000	0.000000	0.000000	0.000000	0.000000	0.000000	-120.770439	1258.469727	40.568115	0.471796	0.000000	-0.384507	0.000000	0.000000	0.000000	0.000000	-1.963217	0.000000	
4.783333	0.000000	0.000000	0.000000	0.000000	0.000000	0.000000	-120.908821	1272.424561	41.420235	0.470367	0.000000	-0.384604	0.000000	0.000000	0.000000	0.000000	-1.991799	0.000000	
4.784375	0.000000	0.000000	0.000000	0.000000	0.000000	0.000000	-120.785110	1286.205200	42.225704	0.468890	0.000000	-0.384711	0.000000	0.000000	0.000000	0.000000	-2.020681	0.000000	
4.785417	0.000000	0.000000	0.000000	0.000000	0.000000	0.000000	-120.401749	1299.796387	42.983822	0.467368	0.000000	-0.384825	0.000000	0.000000	0.000000	0.000000	-2.049773	0.000000	
4.786458	0.000000	0.000000	0.000000	0.000000	0.000000	0.000000	-119.763496	1313.184448	43.694920	0.465806	0.000000	-0.384948	0.000000	0.000000	0.000000	0.000000	-2.078987	0.000000	
4.787500	0.000000	0.000000	0.000000	0.000000	0.000000	0.000000	-118.877533	1326.355957	44.360313	0.464209	0.000000	-0.385078	0.000000	0.000000	0.000000	0.000000	-2.108239	0.000000	
4.788542	0.000000	0.000000	0.000000	0.000000	0.000000	0.000000	-117.753365	1339.298462	44.982227	0.462582	0.000000	-0.385214	0.000000	0.000000	0.000000	0.000000	-2.137447	0.000000	
4.789583	0.000000	0.000000	0.000000	0.000000	0.000000	0.000000	-116.402611	1351.999146	45.563675	0.460930	0.000000	-0.385356	0.000000	0.000000	0.000000	0.000000	-2.166535	0.000000	
4.790625	0.000000	0.000000	0.000000	0.000000	0.000000	0.000000	-114.838654	1364.445313	46.108364	0.459256	0.000000	-0.385502	0.000000	0.000000	0.000000	0.000000	-2.195430	0.000000	
4.791667	0.000000	0.000000	0.000000	0.000000	0.000000	0.000000	-113.076210	1376.624023	46.620564	0.457566	0.000000	-0.385651	0.000000	0.000000	0.000000	0.000000	-2.224067	0.000000	
4.792708	0.000000	0.000000	0.000000	0.000000	0.000000	0.000000	-111.130844	1388.521606	47.104954	0.455862	0.000000	-0.385803	0.000000	0.000000	0.000000	0.000000	-2.252384	0.000000	
4.793750	0.000000	0.000000	0.000000	0.000000	0.000000	0.000000	-109.018517	1400.124390	47.566498	0.454148	0.000000	-0.385955	0.000000	0.000000	0.000000	0.000000	-2.280326	0.000000	
4.794792	0.000000	0.000000	0.000000	0.000000	0.000000	0.000000	-106.755119	1411.417969	48.010273	0.452426	0.000000	-0.386107	0.000000	0.000000	0.000000	0.000000	-2.307845	0.000000	
4.795833	0.000000	0.000000	0.000000	0.000000	0.000000	0.000000	-104.356133	1422.387695	48.441360	0.450700	0.000000	-0.386257	0.000000	0.000000	0.000000	0.000000	-2.334898	0.000000	
4.796875	0.000000	0.000000	0.000000	0.000000	0.000000	0.000000	-101.836342	1433.018555	48.864677	0.448969	0.000000	-0.386406	0.000000	0.000000	0.000000	0.000000	-2.361448	0.000000	
4.797917	0.000000	0.000000	0.000000	0.000000	0.000000	0.000000	-99.209694	1443.295532	49.284863	0.447238	0.000000	-0.386550	0.000000	0.000000	0.000000	0.000000	-2.387466	0.000000	
4.798958	0.000000	0.000000	0.000000	0.000000	0.000000	0.000000	-96.489212	1453.203979	49.706173	0.445506	0.000000	-0.386691	0.000000	0.000000	0.000000	0.000000	-2.412926	0.000000	
4.800000	0.000000	0.000000	0.000000	0.000000	0.000000	0.000000	-93.687088	1462.728760	50.132374	0.443774	0.000000	-0.386827	0.000000	0.000000	0.000000	0.000000	-2.437811	0.000000	
4.801042	0.000000	0.000000	0.000000	0.000000	0.000000	0.000000	-90.814713	1471.855835	50.566669	0.442046	0.000000	-0.386958	0.000000	0.000000	0.000000	0.000000	-2.462106	0.000000	
4.802083	0.000000	0.000000	0.000000	0.000000	0.000000	0.000000	-87.882919	1480.571045	51.011639	0.440320	0.000000	-0.387084	0.000000	0.000000	0.000000	0.000000	-2.485804	0.000000	
4.803125	0.000000	0.000000	0.000000	0.000000	0.000000	0.000000	-84.902115	1488.861084	51.469212	0.438600	0.000000	-0.387205	0.000000	0.000000	0.000000	0.000000	-2.508901	0.000000	
4.804167	0.000000	0.000000	0.000000	0.000000	0.000000	0.000000	-81.882462	1496.713379	51.940639	0.436885	0.000000	-0.387321	0.000000	0.000000	0.000000	0.000000	-2.531397	0.000000	
4.805208	0.000000	0.000000	0.000000	0.000000	0.000000	0.000000	-78.834015	1504.116089	52.426514	0.435179	0.000000	-0.387432	0.000000	0.000000	0.000000	0.000000	-2.553298	0.000000	
4.806250	0.000000	0.000000	0.000000	0.000000	0.000000	0.000000	-75.766838	1511.057983	52.926788	0.433481	0.000000	-0.387540	0.000000	0.000000	0.000000	0.000000	-2.574612	0.000000	
4.807292	0.000000	0.000000	0.000000	0.000000	0.000000	0.000000	-72.691017	1517.529175	53.440826	0.431794	0.000000	-0.387645	0.000000	0.000000	0.000000	0.000000	-2.595351	0.000000	
4.808333	0.000000	0.000000	0.000000	0.000000	0.000000	0.000000	-69.616631	1523.520508	53.967449	0.430119	0.000000	-0.387747	0.000000	0.000000	0.000000	0.000000	-2.615530	0.000000	
4.809375	0.000000	0.000000	0.000000	0.000000	0.000000	0.000000	-66.553696	1529.024048	54.505016	0.428457	0.000000	-0.387848	0.000000	0.000000	0.000000	0.000000	-2.635165	0.000000	
4.810417	0.000000	0.000000	0.000000	0.000000	0.000000	0.000000	-63.512009	1534.033081	55.051517	0.426811	0.000000	-0.387949	0.000000	0.000000	0.000000	0.000000	-2.654278	0.000000	
4.811458	0.000000	0.000000	0.000000	0.000000	0.000000	0.000000	-60.500992	1538.541870	55.604622	0.425180	0.000000	-0.388051	0.000000	0.000000	0.000000	0.000000	-2.672888	0.000000	
4.812500	0.000000	0.000000	0.000000	0.000000	0.000000	0.000000	-57.529488	1542.546265	56.161808	0.423567	0.000000	-0.388154	0.000000	0.000000	0.000000	0.000000	-2.691018	0.000000	
4.813542	0.000000	0.000000	0.000000	0.000000	0.000000	0.000000	-54.605564	1546.043579	56.720425	0.421971	0.000000	-0.388259	0.000000	0.000000	0.000000	0.000000	-2.708692	0.000000	
4.814583	0.000000	0.000000	0.000000	0.000000	0.000000	0.000000	-51.736320	1549.032349	57.277782	0.420394	0.000000	-0.388368	0.000000	0.000000	0.000000	0.000000	-2.725935	0.000000	
4.815625	0.000000	0.000000	0.000000	0.000000	0.000000	0.000000	-48.927692	1551.512939	57.831234	0.418836	0.000000	-0.388481	0.000000	0.000000	0.000000	0.000000	-2.742770	0.000000	
4.816667	0.000000	0.000000	0.000000	0.000000	0.000000	0.000000	-46.184326	1553.486816	58.378227	0.417297	0.000000	-0.388598	0.000000	0.000000	0.000000	0.000000	-2.759223	0.000000	
4.817708	0.000000	0.000000	0.000000	0.000000	0.000000	0.000000	-43.509445	1554.957397	58.916382	0.415776	0.000000	-0.388719	0.000000	0.000000	0.000000	0.000000	-2.775319	0.000000	
4.818750	0.000000	0.000000	0.000000	0.000000	0.000000	0.000000	-40.904808	1555.929199	59.443512	0.414272	0.000000	-0.388846	0.000000	0.000000	0.000000	0.000000	-2.791082	0.000000	
4.819792	0.000000	0.000000	0.000000	0.000000	0.000000	0.000000	-38.370674	1556.408325	59.957684	0.412786	0.000000	-0.388978	0.000000	0.000000	0.000000	0.000000	-2.806535	0.000000	
4.820833	0.000000	0.000000	0.000000	0.000000	0.000000	0.000000	-35.905853	1556.402100	60.457207	0.411317	0.000000	-0.389115	0.000000	0.000000	0.000000	0.000000	-2.821699	0.000000	
4.821875	0.000000	0.000000	0.000000	0.000000	0.000000	0.000000	-33.507805	1555.918823	60.940674	0.409862	0.000000	-0.389256	0.000000	0.000000	0.000000	0.000000	-2.836596	0.000000	
